<svg xmlns="http://www.w3.org/2000/svg" width="682" height="974" viewBox="0 0 682 974" fill="none">
<path d="M51.3118 533.5C176.812 727.5 339.812 974 339.812 974C339.812 974 491.311 744.5 626.811 533.5C762.312 322.5 636.312 0 335.312 0C34.3119 0 -74.1882 339.5 51.3118 533.5Z" fill="#272B2D"/>
<circle cx="340.312" cy="340" r="253" fill="#F4E9DC"/>
    <g class="star" [class.spinning]="animated()">
        <path d="M375.216 273.106L516.552 191.039L416.382 323.864L568.17 379.003L401.076 387.388L445.374 546.689L340.227 413.916L233.898 546.011L279.368 387.386L112.312 379.003L265.878 323.218L164.243 192.522L305.918 272.002L340.456 101L375.216 273.106Z" fill="#272B2D"/>
        <circle cx="340.312" cy="340" r="80" fill="#F4E9DC"/>
        <circle cx="339.812" cy="340.5" r="65.5" fill="#272B2D"/>
    </g>
</svg>
